<svg width="69" height="69" viewBox="0 0 69 69" fill="none" xmlns="http://www.w3.org/2000/svg">
<rect width="69" height="69" rx="21" fill="#202020"/>
<g clip-path="url(#clip0_249_121)">
<mask id="mask0_249_121" style="mask-type:luminance" maskUnits="userSpaceOnUse" x="18" y="29" width="33" height="11">
<path d="M51 29H18V40H51V29Z" fill="white"/>
</mask>
<g mask="url(#mask0_249_121)">
<mask id="mask1_249_121" style="mask-type:luminance" maskUnits="userSpaceOnUse" x="18" y="29" width="33" height="11">
<path d="M51 29H18V40H51V29Z" fill="white"/>
</mask>
<g mask="url(#mask1_249_121)">
<path d="M23.6529 33.9255L26.2434 37.446C26.4818 37.7472 26.6116 38.116 26.613 38.4957C26.6179 38.6852 26.5836 38.8737 26.5122 39.0502C26.4408 39.2266 26.3337 39.3874 26.1972 39.5231C26.0614 39.6599 25.8976 39.7675 25.7163 39.8392C25.535 39.9109 25.3402 39.9449 25.1445 39.9392C24.8606 39.9341 24.5827 39.8593 24.3368 39.7215C24.0909 39.5838 23.8851 39.3878 23.7387 39.1518L21.465 36.041L21.1581 36.329V38.2493C21.1799 38.6995 21.0201 39.1403 20.7126 39.4783C20.567 39.6296 20.3899 39.7492 20.1931 39.8292C19.9963 39.9092 19.7842 39.9478 19.5708 39.9424C19.3594 39.9482 19.1491 39.9098 18.9543 39.8297C18.7596 39.7496 18.5849 39.6298 18.4422 39.4783C18.1395 39.1416 17.9813 38.7052 18 38.2589V30.709C17.9789 30.2569 18.1385 29.8144 18.4455 29.4736C18.5862 29.32 18.7598 29.198 18.9542 29.1162C19.1486 29.0344 19.359 28.9947 19.5708 29C19.7835 28.9953 19.9948 29.0352 20.1901 29.1169C20.3855 29.1987 20.5603 29.3203 20.7027 29.4736C21.0154 29.8117 21.1789 30.2553 21.1581 30.709V32.1812L23.8542 29.5632C24.0408 29.3597 24.2735 29.2009 24.534 29.0992C24.8024 29.0263 25.0805 28.9928 25.359 29C25.5177 29.0102 25.6726 29.0515 25.8144 29.1214C25.9562 29.1912 26.0819 29.2882 26.184 29.4064C26.3192 29.5382 26.4254 29.6952 26.4963 29.8679C26.5672 30.0407 26.6013 30.2255 26.5965 30.4114C26.5949 30.6412 26.5442 30.8682 26.4476 31.078C26.3511 31.2879 26.2108 31.4761 26.0355 31.6307L23.6529 33.9255ZM18.3729 30.565C18.4399 30.571 18.5073 30.5588 18.5676 30.5298C18.6332 30.4555 18.6856 30.3711 18.7227 30.2802C18.786 30.1359 18.8766 30.0046 18.99 29.8929C19.0956 29.799 19.1484 29.7254 19.1484 29.6721C19.1484 29.5408 19.0593 29.4736 18.8778 29.4736C18.7557 29.4736 18.6171 29.5825 18.462 29.7937C18.3341 29.9481 18.254 30.1345 18.231 30.3314C18.231 30.485 18.2772 30.565 18.3729 30.565ZM24.4977 29.7841C24.5183 29.7657 24.5347 29.7435 24.5461 29.7187C24.5574 29.6939 24.5634 29.6672 24.5637 29.6401C24.5682 29.6085 24.565 29.5764 24.5544 29.5462C24.5439 29.516 24.5262 29.4887 24.5028 29.4663C24.4794 29.4439 24.451 29.4272 24.4197 29.4173C24.3885 29.4075 24.3553 29.4048 24.3228 29.4096C24.2949 29.4099 24.2673 29.4157 24.2417 29.4267C24.2162 29.4377 24.1933 29.4537 24.1743 29.4736L23.6562 30.0017C23.6315 30.0184 23.6106 30.0397 23.5947 30.0645C23.5788 30.0892 23.5683 30.1169 23.5638 30.1457C23.5639 30.1758 23.5703 30.2056 23.5828 30.2331C23.5953 30.2607 23.6136 30.2854 23.6364 30.3058C23.6581 30.3282 23.6841 30.3462 23.713 30.3588C23.7419 30.3715 23.7731 30.3784 23.8047 30.3794C23.8577 30.368 23.9053 30.3399 23.94 30.2994L24.4977 29.7841Z" fill="white"/>
<path d="M32.718 38.3581L32.3583 39.0462C32.2416 39.3284 32.0408 39.5705 31.7816 39.7415C31.5224 39.9125 31.2165 40.0047 30.903 40.0064C30.6877 40.0083 30.4745 39.9657 30.2776 39.8812C30.0806 39.7968 29.9046 39.6725 29.7612 39.5167C29.4639 39.23 29.2945 38.8416 29.2893 38.435C29.2821 38.2537 29.317 38.0732 29.3916 37.9069L33.1437 30.0849C33.286 29.7675 33.514 29.4933 33.8037 29.2912C34.0698 29.1019 34.3912 28.9999 34.7211 28.9999C35.0511 28.9999 35.3725 29.1019 35.6385 29.2912C35.9269 29.4933 36.1547 29.7661 36.2985 30.0817L40.0473 37.8973C40.1197 38.0655 40.1556 38.2463 40.1529 38.4286C40.1499 38.8346 39.9842 39.2237 39.6909 39.5135C39.5488 39.6689 39.3739 39.7927 39.178 39.8767C38.9821 39.9606 38.7699 40.0027 38.5557 40C38.2426 39.9966 37.9375 39.9037 37.6787 39.7329C37.4198 39.5621 37.2186 39.321 37.1004 39.0398L36.7242 38.3517L32.718 38.3581ZM30.375 37.5388C30.3841 37.4826 30.3841 37.4254 30.375 37.3692C30.375 37.286 30.2727 37.2412 30.0681 37.2412C30.0285 37.2412 29.9922 37.286 29.9526 37.3692L29.6457 38.0285C29.6312 38.0882 29.6257 38.1497 29.6292 38.2109C29.6292 38.2973 29.7315 38.3389 29.9361 38.3389C29.9757 38.3389 30.012 38.2973 30.0516 38.2109L30.375 37.5388ZM33.5661 30.5778C33.6486 30.5778 33.7212 30.517 33.7872 30.3858C33.8668 30.2392 33.9631 30.1018 34.0743 29.9761C34.1599 29.8967 34.2234 29.7976 34.2591 29.6881C34.2591 29.5569 34.1799 29.4897 34.0182 29.4897C33.9192 29.4897 33.7806 29.6177 33.5991 29.8705C33.4771 30.0109 33.3841 30.1728 33.3252 30.3474C33.3208 30.3789 33.3239 30.4111 33.3345 30.4412C33.3451 30.4714 33.3628 30.4988 33.3862 30.5211C33.4095 30.5435 33.438 30.5603 33.4692 30.5701C33.5005 30.58 33.5337 30.5826 33.5661 30.5778ZM35.4669 35.4009L34.7277 33.8359L33.9885 35.4009H35.4669Z" fill="white"/>
<path d="M45.588 35.132L47.9409 29.9345C48.063 29.6776 48.2532 29.4568 48.492 29.2944C48.7012 29.1306 48.9592 29.0363 49.2279 29.0255C49.7025 28.999 50.1686 29.1555 50.5248 29.4608C50.6788 29.5987 50.8008 29.7667 50.8827 29.9537C50.9646 30.1408 51.0046 30.3426 51 30.5458C51.0059 30.7286 50.9687 30.9103 50.8911 31.077L47.1456 38.9214C47.0052 39.239 46.7767 39.5126 46.4856 39.7119C46.2132 39.8922 45.8914 39.9892 45.5616 39.9903C45.2422 39.9851 44.9323 39.8845 44.6739 39.7023C44.3849 39.5063 44.1567 39.2373 44.0139 38.9246L40.2519 31.077C40.184 30.9078 40.1504 30.7274 40.1529 30.5458C40.1562 30.1557 40.3105 29.781 40.5852 29.496C40.7167 29.3452 40.8811 29.2247 41.0667 29.1433C41.2522 29.0619 41.4541 29.0217 41.6577 29.0255C41.9832 28.9969 42.3097 29.0688 42.5907 29.2309C42.8716 29.393 43.0925 29.637 43.2219 29.9281L45.588 35.132ZM40.4928 30.6002C40.5641 30.6074 40.6361 30.5952 40.7007 30.565C40.7612 30.4855 40.8121 30.3996 40.8525 30.3089C40.9182 30.1716 41.0075 30.046 41.1165 29.9377C41.2188 29.8417 41.2683 29.7649 41.2683 29.7104C41.2683 29.576 41.1792 29.5088 40.9977 29.5088C40.8855 29.5088 40.7535 29.6208 40.5951 29.8289C40.4664 29.9843 40.3852 30.1717 40.3608 30.3697C40.3608 30.5138 40.4037 30.5874 40.4928 30.5874M48.69 29.9793C48.6993 29.9177 48.6993 29.8552 48.69 29.7937C48.69 29.7072 48.5877 29.6656 48.3831 29.6656C48.3435 29.6656 48.3072 29.704 48.2676 29.7777L47.9376 30.4338C47.9283 30.4953 47.9283 30.5578 47.9376 30.6194C47.9376 30.7058 48.0399 30.7474 48.2445 30.7474C48.2808 30.7474 48.3204 30.709 48.36 30.6354L48.69 29.9793Z" fill="white"/>
</g>
</g>
</g>
<defs>
<clipPath id="clip0_249_121">
<rect width="33" height="11" fill="white" transform="translate(18 29)"/>
</clipPath>
</defs>
</svg>
