<svg xmlns="http://www.w3.org/2000/svg">
    <defs>
        <symbol viewBox="0 0 16 16" fill="none" id="dribble">
            <g clip-path="url(#clip0_224_183)">
                <path d="M8 .25C3.728.25.25 3.728.25 8S3.728 15.75 8 15.75s7.75-3.478 7.75-7.75S12.272.25 8 .25Zm5.125 3.575a6.576 6.576 0 0 1 1.494 4.125c-.219-.047-2.406-.49-4.61-.213-.18-.437-.35-.825-.58-1.3 2.446-1 3.555-2.421 3.696-2.609v-.003Zm-.738-.766c-.118.17-1.115 1.51-3.468 2.391A35.4 35.4 0 0 0 6.45 1.575c2.1-.506 4.312.04 5.94 1.484h-.003ZM5.184 2.02c.175.24 1.357 1.878 2.454 3.828-3.097.822-5.825.81-6.12.806A6.658 6.658 0 0 1 5.185 2.02Zm-3.803 5.99c0-.068 0-.134.003-.203.291.006 3.497.047 6.803-.94.191.372.372.747.538 1.122-2.394.674-4.569 2.609-5.64 4.446A6.579 6.579 0 0 1 1.38 8.01Zm2.556 5.222c.691-1.412 2.57-3.237 5.238-4.15a27.851 27.851 0 0 1 1.412 5.019 6.605 6.605 0 0 1-6.65-.872v.003Zm7.763.266a28.393 28.393 0 0 0-1.287-4.719c2.075-.331 3.896.213 4.121.284a6.639 6.639 0 0 1-2.837 4.438l.003-.003Z" fill="#000"/>
            </g>
            <defs>
                <clipPath id="clip0_224_183">
                    <path fill="#fff" d="M0 0h16v16H0z"/>
                </clipPath>
            </defs>
        </symbol>
        <symbol viewBox="0 0 14 16" fill="none" id="linkedin">
            <path d="M3.134 14H.231V4.653h2.903V14ZM1.681 3.378A1.695 1.695 0 0 1 0 1.681a1.681 1.681 0 1 1 3.362 0c0 .928-.753 1.697-1.68 1.697ZM13.997 14H11.1V9.45c0-1.084-.022-2.475-1.51-2.475-1.509 0-1.74 1.178-1.74 2.397V14h-2.9V4.653h2.784v1.275h.041c.387-.734 1.334-1.51 2.747-1.51C13.459 4.419 14 6.354 14 8.867V14h-.003Z" fill="#000"/>
        </symbol>
        <symbol viewBox="0 0 16 16" fill="none" id="envelope">
            <path d="M1.5 2a1.5 1.5 0 0 0-.9 2.7l6.8 5.1c.356.266.844.266 1.2 0l6.8-5.1a1.5 1.5 0 0 0-.9-2.7h-13ZM0 5.5V12c0 1.103.897 2 2 2h12c1.103 0 2-.897 2-2V5.5l-6.8 5.1a1.997 1.997 0 0 1-2.4 0L0 5.5Z" fill="#000"/>
        </symbol>
        <symbol viewBox="0 0 16 16" fill="none" id="github">
            <g clip-path="url(#clip0_224_187)">
                <path d="M5.184 12.419c0 .062-.072.112-.162.112-.103.01-.175-.04-.175-.112 0-.063.072-.113.162-.113.094-.01.175.04.175.113Zm-.971-.14c-.022.062.04.133.134.152.081.032.175 0 .194-.062.018-.063-.041-.135-.135-.163-.081-.022-.172.01-.193.072Zm1.38-.054c-.09.022-.152.081-.143.153.01.063.09.103.184.081.091-.021.153-.08.144-.143-.01-.06-.094-.1-.184-.091ZM7.65.25C3.316.25 0 3.54 0 7.875c0 3.466 2.181 6.431 5.297 7.475.4.072.54-.175.54-.378 0-.194-.009-1.263-.009-1.919 0 0-2.187.469-2.647-.931 0 0-.356-.91-.869-1.144 0 0-.715-.49.05-.481 0 0 .779.062 1.207.806.684 1.206 1.831.86 2.278.653.072-.5.275-.847.5-1.053-1.747-.194-3.51-.447-3.51-3.453 0-.86.238-1.29.738-1.84-.081-.204-.347-1.041.081-2.123.653-.203 2.156.844 2.156.844a7.342 7.342 0 0 1 1.963-.265c.666 0 1.338.09 1.963.265 0 0 1.503-1.05 2.156-.844.428 1.085.162 1.92.081 2.122.5.553.806.985.806 1.841 0 3.016-1.84 3.256-3.587 3.453.287.247.531.716.531 1.45 0 1.053-.01 2.356-.01 2.613 0 .203.144.45.541.378 3.125-1.038 5.244-4.003 5.244-7.469C15.5 3.541 11.984.25 7.65.25ZM3.037 11.028c-.04.031-.03.103.022.163.05.05.122.071.163.03.04-.03.031-.102-.022-.162-.05-.05-.122-.071-.163-.03Zm-.337-.253c-.022.04.01.09.072.122.05.031.112.022.134-.022.022-.04-.01-.09-.072-.122-.062-.019-.112-.01-.134.022Zm1.012 1.112c-.05.041-.03.135.041.194.072.072.163.082.203.032.04-.041.022-.135-.04-.194-.07-.072-.163-.082-.204-.032Zm-.356-.459c-.05.031-.05.113 0 .184.05.072.135.104.175.072.05-.04.05-.121 0-.193-.044-.072-.125-.104-.175-.063Z" fill="#000"/>
            </g>
            <defs>
                <clipPath id="clip0_224_187">
                    <path fill="#fff" d="M0 0h15.5v16H0z"/>
                </clipPath>
            </defs>
        </symbol>
    </defs>
</svg>
