<svg xmlns="http://www.w3.org/2000/svg" xmlns:xlink="http://www.w3.org/1999/xlink" viewBox="0 0 200 250" version="1.1" x="0px" y="0px"><title>Blog</title><desc>Created with Sketch.</desc><g stroke="none" stroke-width="1" fill="none" fill-rule="evenodd"><g transform="translate(-3928.000000, -4386.000000)" fill="#000000" fill-rule="nonzero"><path d="M3961.33333,4386 L4094.66667,4386 C4113.07616,4386 4128,4400.92384 4128,4419.33333 L4128,4552.66667 C4128,4571.07616 4113.07616,4586 4094.66667,4586 L3961.33333,4586 C3942.92384,4586 3928,4571.07616 3928,4552.66667 L3928,4419.33333 C3928,4400.92384 3942.92384,4386 3961.33333,4386 Z M4065.5,4403.27273 C4061.35786,4403.27273 4058,4406.63059 4058,4410.77273 C4058,4414.91486 4061.35786,4418.27273 4065.5,4418.27273 C4069.64214,4418.27273 4073,4414.91486 4073,4410.77273 C4073,4406.63059 4069.64214,4403.27273 4065.5,4403.27273 Z M4089.94444,4403.27273 C4085.80231,4403.27273 4082.44444,4406.63059 4082.44444,4410.77273 C4082.44444,4414.91486 4085.80231,4418.27273 4089.94444,4418.27273 C4094.08658,4418.27273 4097.44444,4414.91486 4097.44444,4410.77273 C4097.44444,4406.63059 4094.08658,4403.27273 4089.94444,4403.27273 Z M3944.22222,4555.61212 C3944.22222,4562.22201 3949.58059,4567.58038 3956.19048,4567.58038 L4099.80952,4567.58038 C4106.41941,4567.58038 4111.77778,4562.22201 4111.77778,4555.61212 L4111.77778,4430.70707 L3944.22222,4430.70707 L3944.22222,4555.61212 Z M3957,4450 L4047,4450 L4047,4552 L3957,4552 L3957,4450 Z M4061,4449 L4099,4449 L4099,4474 L4061,4474 L4061,4449 Z M4061,4487 L4099,4487 L4099,4508 L4061,4508 L4061,4487 Z M4061,4521 L4099,4521 L4099,4551 L4061,4551 L4061,4521 Z"/></g></g><text x="0" y="215" fill="#000000" font-size="5px" font-weight="bold" font-family="'Helvetica Neue', Helvetica, Arial-Unicode, Arial, Sans-serif">Created by Silviu Ojog</text><text x="0" y="220" fill="#000000" font-size="5px" font-weight="bold" font-family="'Helvetica Neue', Helvetica, Arial-Unicode, Arial, Sans-serif">from the Noun Project</text></svg>